<?xml version="1.0" encoding="utf-8"?>
<!-- Generator: Adobe Illustrator 16.0.0, SVG Export Plug-In . SVG Version: 6.00 Build 0)  -->
<!DOCTYPE svg PUBLIC "-//W3C//DTD SVG 1.1//EN" "http://www.w3.org/Graphics/SVG/1.1/DTD/svg11.dtd">
<svg version="1.1" id="Calque_1" xmlns="http://www.w3.org/2000/svg" xmlns:xlink="http://www.w3.org/1999/xlink" x="0px" y="0px"
	 width="95px" height="95px" viewBox="0 0 95 95" enable-background="new 0 0 95 95" xml:space="preserve">
<g>
	<path fill="none" d="M66.502,8.241C66.48,8.24,66.459,8.24,66.438,8.238c0,0-0.055,0.093-0.168,0.236
		C66.347,8.396,66.426,8.324,66.502,8.241z"/>
	<path fill="none" d="M61.964,10.621c-0.14,0.021-0.266,0.036-0.384,0.048C61.71,10.657,61.836,10.639,61.964,10.621z"/>
	<path fill="none" d="M63.392,10.295c-0.106,0.035-0.211,0.066-0.316,0.095C63.182,10.36,63.288,10.33,63.392,10.295z"/>
	<polygon fill="none" points="82.129,27.672 82.115,27.67 82.124,27.685 	"/>
	<path fill="none" d="M62.696,10.489c-0.138,0.03-0.271,0.057-0.399,0.081C62.432,10.545,62.564,10.519,62.696,10.489z"/>
	<path fill="none" d="M64.128,10.003c-0.072,0.033-0.14,0.065-0.216,0.097C63.984,10.07,64.057,10.037,64.128,10.003z"/>
	<polygon fill="none" points="86.367,62.738 86.363,62.748 86.372,62.744 	"/>
	<polygon fill="none" points="76.364,20.604 76.351,20.606 76.363,20.618 	"/>
	<polygon fill="none" points="82.457,70.974 82.45,70.982 82.46,70.981 	"/>
	<polygon fill="none" points="76.805,78.137 76.804,78.132 76.8,78.136 	"/>
	<polygon fill="none" points="75.933,79.044 75.93,79.05 75.934,79.045 	"/>
	<rect x="76.797" y="78.128" fill="#234944" width="0.004" height="0.012"/>
	<path fill="#234944" d="M7.526,48.719c0.214-10.133,4.137-19.355,10.479-26.349C11.331,29.289,7.098,38.572,6.684,48.842
		c0.192-0.078,0.402-0.123,0.623-0.123H7.526z"/>
	<polygon fill="#234944" points="69.695,83.835 69.682,83.843 69.693,83.847 	"/>
	<path fill="#234944" d="M75.983,78.922c-1.659,1.581-3.444,3.029-5.354,4.313l-0.001,0.008c-0.31,0.21-0.623,0.415-0.937,0.615
		v-0.004c-0.184,0.114-0.37,0.226-0.556,0.338c-0.06,0.036-0.119,0.072-0.18,0.108c-0.07,0.043-0.143,0.088-0.214,0.131
		l-0.008-0.003c-1.966,1.171-4.039,2.176-6.202,3.006l-0.003,0.007c-0.093,0.037-0.189,0.07-0.284,0.105
		c-0.17,0.063-0.341,0.128-0.513,0.189c-0.085,0.03-0.169,0.063-0.254,0.093l0.001-0.003c-0.343,0.119-0.689,0.234-1.038,0.347
		c-2.17,0.697-4.421,1.215-6.734,1.539l-0.007,0.01c-0.371,0.052-0.741,0.101-1.112,0.144l0.008-0.012
		c-0.835,0.093-1.676,0.169-2.525,0.21v0.442c0,0.141-0.024,0.274-0.056,0.406c0.57-0.041,1.144-0.078,1.708-0.141l-0.005,0.005
		c0.129-0.014,0.257-0.032,0.384-0.05c0.174-0.02,0.348-0.042,0.521-0.065c0.068-0.01,0.14-0.018,0.207-0.026l0.002-0.004
		c2.688-0.377,5.287-1.015,7.78-1.891l-0.003,0.002c0.022-0.006,0.043-0.016,0.063-0.021c2.523-0.895,4.932-2.027,7.196-3.375h0.004
		c0.051-0.029,0.103-0.063,0.152-0.095c0.117-0.07,0.233-0.14,0.35-0.211c0.151-0.093,0.301-0.183,0.448-0.274v0.003
		c0.314-0.199,0.628-0.403,0.937-0.612v-0.008c1.914-1.287,3.71-2.731,5.371-4.316l0.011,0.002c0.269-0.258,0.534-0.516,0.795-0.778
		l0.002,0.006c0.263-0.266,0.521-0.534,0.777-0.809l-0.003-0.017c-0.231,0.231-0.467,0.461-0.701,0.688L75.983,78.922z
		 M75.933,79.044L75.933,79.044c0,0.003-0.002,0.004-0.003,0.006C75.932,79.046,75.933,79.044,75.933,79.044z"/>
	<path fill="#234944" d="M46.775,90.506v-0.423c-0.679-0.021-1.354-0.058-2.024-0.111l0.009,0.014
		c-0.201-0.017-0.404-0.039-0.605-0.06c-0.155-0.014-0.31-0.028-0.465-0.045c-0.015-0.002-0.03-0.003-0.046-0.005l-0.001-0.002
		c-2.321-0.249-4.58-0.701-6.767-1.326l-0.002,0.001c-0.041-0.012-0.081-0.025-0.123-0.037c-3.193-0.924-6.222-2.229-9.038-3.863
		c-0.081-0.047-0.165-0.092-0.245-0.139l0.002-0.001c-2.563-1.513-4.943-3.298-7.104-5.317c-0.059-0.055-0.119-0.107-0.178-0.162
		l0,0c-0.09-0.086-0.18-0.177-0.27-0.265C12.815,71.918,8.204,62.506,7.583,52.014H7.307c-0.911,0-1.648-0.737-1.648-1.646
		c0-0.211,0.043-0.412,0.116-0.597c-0.58,0.257-0.985,0.834-0.985,1.508c0,0.91,0.738,1.648,1.65,1.648h0.272
		C7.9,73.034,23.746,89.197,43.719,90.883c0.057,0.005,0.117,0.011,0.173,0.015v-0.002c0.667,0.054,1.337,0.091,2.012,0.111v0.413
		c0,0.911,0.738,1.648,1.649,1.648c0.701,0,1.295-0.439,1.534-1.056c-0.205,0.091-0.43,0.144-0.667,0.144
		C47.512,92.156,46.775,91.416,46.775,90.506z"/>
	<path fill="#5BBDB3" d="M19.617,20.707l3.859,0.357c0.015-0.095,0.023-0.192,0.04-0.287c0.237-1.466,0.559-2.864,0.973-4.166
		c-2.032,1.454-3.924,3.089-5.651,4.884v0C19.094,21.229,19.355,20.967,19.617,20.707z"/>
	<path fill="#5BBDB3" d="M86.145,63.396c-0.027,0.074-0.054,0.149-0.081,0.224C86.091,63.545,86.118,63.47,86.145,63.396z"/>
	<path fill="#5BBDB3" d="M84.61,52.014c-1.173,17.919-15.212,32.325-32.969,34.059c-0.394,0.037-0.791,0.063-1.188,0.089
		c0.008-0.21,0.014-0.486,0.021-0.749c-0.008,0.245-0.014,0.492-0.021,0.701c0,0.002,0,0.007,0,0.007
		c-0.128,0.015-0.256,0.021-0.383,0.032v3.911c0.85-0.041,1.69-0.117,2.525-0.21l2.709-4.32c0.221-0.049,0.445-0.096,0.666-0.147
		c0.093-0.02,0.184-0.036,0.273-0.06c0.083-0.016,0.165-0.038,0.248-0.057c0.223-0.054,0.447-0.106,0.666-0.165l4.325,2.712
		l1.674-4.82c0.208-0.092,0.414-0.19,0.62-0.288c0.084-0.041,0.167-0.079,0.252-0.119c0.076-0.035,0.152-0.075,0.228-0.113
		c0.204-0.102,0.411-0.202,0.612-0.308l4.812,1.675c0.005-0.002,0.009-0.005,0.014-0.008l0.552-5.063
		c0.181-0.137,0.36-0.279,0.538-0.421c0.073-0.06,0.146-0.113,0.222-0.172c0.063-0.052,0.129-0.107,0.195-0.161
		c0.175-0.146,0.354-0.287,0.529-0.434l5.063,0.552c0.003-0.003,0.006-0.005,0.009-0.008l-0.593-5.059
		c0.146-0.174,0.288-0.354,0.43-0.53c0.06-0.073,0.118-0.143,0.176-0.219c0.053-0.064,0.104-0.133,0.156-0.2
		c0.14-0.181,0.281-0.361,0.418-0.543l5.06-0.595c0.003-0.003,0.005-0.007,0.007-0.009l-1.71-4.798
		c0.105-0.203,0.203-0.408,0.302-0.612c0.04-0.087,0.082-0.167,0.121-0.254c0.04-0.074,0.071-0.151,0.105-0.229
		c0.1-0.208,0.195-0.414,0.288-0.619l4.8-1.713c0.001-0.004,0.003-0.006,0.004-0.01l-2.739-4.297
		c0.055-0.221,0.106-0.441,0.158-0.664c0.019-0.093,0.04-0.181,0.063-0.271c0.018-0.084,0.033-0.167,0.052-0.251
		c0.046-0.221,0.096-0.444,0.137-0.669l4.299-2.742c0.038-0.363,0.062-0.73,0.089-1.096c0.02-0.245,0.041-0.487,0.056-0.734H84.61z"
		/>
	<path fill="#5BBDB3" d="M11.389,48.719c0.044-1.887,0.228-3.738,0.546-5.544l-4.258,2.811c0.035-0.373,0.074-0.744,0.12-1.116
		l4.072-2.69l-2.69-4.069c0.105-0.362,0.215-0.719,0.33-1.074l0.001,0.002c0.115-0.349,0.236-0.702,0.361-1.051l4.571-1.711
		l-1.715-4.57c0.187-0.324,0.375-0.651,0.563-0.97l0,0.002c0.192-0.316,0.388-0.632,0.59-0.946l4.838-0.646l-0.646-4.834
		c0.206-0.229,0.418-0.455,0.631-0.678c-0.233,0.245-0.471,0.485-0.698,0.735C11.663,29.364,7.741,38.585,7.526,48.719H11.389z"/>
	<path fill="#5BBDB3" d="M26.522,83.928l-0.683-4.833l-4.83,0.686c-0.217-0.193-0.429-0.391-0.641-0.589
		c2.161,2.02,4.541,3.805,7.104,5.317l0.002-0.001C27.156,84.321,26.838,84.127,26.522,83.928z"/>
	<path fill="#5BBDB3" d="M13.294,28.747l1.787,4.769c0.934-1.911,2.02-3.735,3.259-5.442L13.294,28.747z"/>
	<path fill="#5BBDB3" d="M10.146,63.936l4.861,1.558c0.099,0.206,0.204,0.41,0.305,0.614c0.043,0.079,0.081,0.165,0.126,0.248
		c0.024,0.049,0.05,0.097,0.076,0.145c-1.146-2.195-2.077-4.519-2.762-6.947L10.146,63.936z"/>
	<path fill="#5BBDB3" d="M14.317,72.048l5.083,0.43c0.143,0.181,0.289,0.355,0.433,0.53c0.042,0.05,0.083,0.1,0.125,0.149
		c-1.549-1.842-2.916-3.839-4.082-5.964L14.317,72.048z"/>
	<path fill="#5BBDB3" d="M12.447,58.369c0.023,0.09,0.043,0.178,0.067,0.271c0.017,0.068,0.037,0.136,0.056,0.203
		c-0.045-0.175-0.092-0.35-0.135-0.525C12.439,58.335,12.443,58.353,12.447,58.369z"/>
	<path fill="#5BBDB3" d="M23.274,22.544c0.024-0.208,0.058-0.412,0.085-0.618l-4.52-0.421l0.673,5.044
		C20.666,25.122,21.923,23.782,23.274,22.544z"/>
	<path fill="#5BBDB3" d="M81.402,65.437l1.631,4.575c1.153-1.972,2.148-4.044,2.959-6.211L81.402,65.437z"/>
	<path fill="#5BBDB3" d="M9.514,37.045l2.805,4.245c0.483-2.083,1.145-4.097,1.965-6.028L9.514,37.045z"/>
	<path fill="#5BBDB3" d="M44.155,89.926c-0.155-0.015-0.31-0.028-0.465-0.045C43.845,89.897,44,89.912,44.155,89.926z"/>
	<path fill="#5BBDB3" d="M84.103,57.573l2.62,4.112c0.678-2.167,1.166-4.416,1.473-6.722L84.103,57.573z"/>
	<path fill="#5BBDB3" d="M68.957,84.301c0.061-0.036,0.12-0.072,0.18-0.108C69.077,84.229,69.018,84.265,68.957,84.301z"/>
	<path fill="#5BBDB3" d="M83.976,41.059l4.142,2.548c-0.339-2.301-0.879-4.536-1.59-6.694L83.976,41.059z"/>
	<path fill="#5BBDB3" d="M19.801,73.383l-4.86-0.413c-0.217-0.304-0.426-0.613-0.636-0.923h0.003c-0.202-0.31-0.406-0.621-0.6-0.937
		l1.489-4.647l-4.646-1.491c-0.143-0.342-0.279-0.691-0.414-1.039l0.002,0.001c-0.13-0.346-0.255-0.695-0.378-1.049l2.495-4.195
		l-4.197-2.491c-0.06-0.369-0.12-0.736-0.168-1.108l4.385,2.605c-0.417-1.846-0.695-3.741-0.821-5.682H7.583
		c0.62,10.492,5.231,19.904,12.337,26.751c-0.178-0.171-0.357-0.342-0.531-0.52L19.801,73.383z"/>
	<path fill="#5BBDB3" d="M70.433,18.157l0.285,2.282l4.823-0.606c-1.227-1.134-2.525-2.189-3.886-3.167
		C71.29,17.186,70.887,17.685,70.433,18.157z"/>
	<path fill="#5BBDB3" d="M83.928,42.045c-0.045-0.221-0.097-0.443-0.149-0.666c-0.021-0.091-0.038-0.18-0.061-0.273
		c-0.018-0.083-0.041-0.165-0.063-0.244c-0.021-0.096-0.048-0.188-0.069-0.283c0.66,2.611,1.022,5.337,1.088,8.139h3.865
		c-0.028-1.353-0.122-2.689-0.28-4.006L83.928,42.045z"/>
	<path fill="#5BBDB3" d="M35.803,88.224c-0.352-0.112-0.704-0.229-1.057-0.354L33,83.315l-4.556,1.748
		c-0.245-0.136-0.488-0.274-0.73-0.415c2.816,1.635,5.845,2.939,9.038,3.863c-0.32-0.092-0.638-0.187-0.952-0.285L35.803,88.224z"/>
	<path fill="#5BBDB3" d="M36.876,88.548c2.188,0.625,4.446,1.077,6.767,1.326l-2.722-4.049L36.876,88.548z"/>
	<path fill="#5BBDB3" d="M31.791,82.456c-4.507-2.231-8.487-5.363-11.71-9.155c0.032,0.038,0.065,0.076,0.098,0.114
		c0.147,0.174,0.296,0.348,0.448,0.517l-0.435,5.087l5.054-0.712c0.179,0.141,0.362,0.276,0.542,0.417
		c0.075,0.058,0.145,0.113,0.221,0.169c0.067,0.054,0.135,0.104,0.204,0.151c0.182,0.136,0.367,0.271,0.552,0.407l0.715,5.055
		l4.767-1.829c0.205,0.1,0.412,0.192,0.62,0.288c0.086,0.037,0.167,0.079,0.255,0.115c0.077,0.035,0.154,0.067,0.232,0.101
		c0.207,0.092,0.418,0.182,0.628,0.271l1.828,4.77l4.235-2.847c0.221,0.05,0.446,0.096,0.669,0.141
		c0.092,0.019,0.181,0.038,0.273,0.056c0.083,0.016,0.167,0.031,0.251,0.046c0.222,0.042,0.448,0.085,0.673,0.125l2.842,4.23
		c0.67,0.054,1.345,0.091,2.024,0.111v-3.875c-4.888-0.167-9.537-1.276-13.756-3.174C32.604,82.847,32.194,82.655,31.791,82.456z"/>
	<path fill="#5BBDB3" d="M71.16,78.393l-0.53,4.843c1.909-1.284,3.694-2.732,5.354-4.313L71.16,78.393z"/>
	<path fill="#5BBDB3" d="M83.579,40.554c-0.03-0.118-0.057-0.238-0.088-0.354l2.676-4.351l-4.834-1.635
		c-0.096-0.206-0.194-0.411-0.294-0.616c-0.043-0.084-0.08-0.168-0.123-0.253c-0.036-0.076-0.075-0.15-0.115-0.226
		c-0.1-0.202-0.201-0.408-0.31-0.608l1.633-4.825c-0.003-0.005-0.006-0.01-0.009-0.015l-5.066-0.509
		c-0.139-0.182-0.279-0.358-0.422-0.538c-0.059-0.072-0.114-0.145-0.174-0.219c-0.053-0.065-0.107-0.128-0.163-0.194
		c-0.145-0.176-0.292-0.353-0.44-0.524l0.514-5.068c-0.005-0.004-0.009-0.008-0.013-0.012l-5.052,0.634
		c-0.176-0.145-0.354-0.285-0.532-0.426c-0.074-0.058-0.144-0.115-0.219-0.173c-0.065-0.053-0.134-0.105-0.203-0.155
		c-0.178-0.141-0.361-0.278-0.544-0.412l-0.146-1.17c-0.215,0.194-0.42,0.395-0.647,0.581c-0.004,0.007-0.004,0.02-0.006,0.028
		C76.114,24.48,81.384,31.903,83.579,40.554z"/>
	<path fill="#5BBDB3" d="M81.16,33.24l4.604,1.557c-0.846-2.153-1.859-4.221-3.044-6.177L81.16,33.24z"/>
	<path fill="#5BBDB3" d="M61.733,87.736c0.172-0.062,0.343-0.126,0.513-0.189C62.077,87.61,61.905,87.674,61.733,87.736z"/>
	<path fill="#5BBDB3" d="M76.663,26.249l4.841,0.49c-1.297-1.898-2.758-3.677-4.351-5.324L76.663,26.249z"/>
	<path fill="#5BBDB3" d="M77.016,72.495l0.564,4.818c1.568-1.67,2.997-3.471,4.267-5.388L77.016,72.495z"/>
	<path fill="#5BBDB3" d="M60.427,88.178l-4.132-2.592l-2.587,4.126c2.313-0.324,4.564-0.842,6.734-1.539
		C60.438,88.175,60.433,88.177,60.427,88.178z"/>
	<path fill="#5BBDB3" d="M64.134,82.832l-1.601,4.603c2.163-0.83,4.236-1.835,6.202-3.006L64.134,82.832z"/>
	<path fill="#92CFCD" d="M84.038,56.586c-0.041,0.225-0.091,0.448-0.137,0.669c-0.019,0.084-0.034,0.167-0.052,0.251
		c-0.023,0.091-0.045,0.179-0.063,0.271c-0.052,0.223-0.104,0.443-0.158,0.664l2.739,4.297l0.005,0.006l-0.009,0.004l-4.8,1.713
		c-0.093,0.205-0.188,0.411-0.288,0.619c-0.034,0.078-0.065,0.155-0.105,0.229c-0.039,0.087-0.081,0.167-0.121,0.254
		c-0.099,0.204-0.196,0.409-0.302,0.612l1.71,4.798l0.003,0.008l-0.01,0.001l-5.06,0.595c-0.137,0.182-0.278,0.362-0.418,0.543
		c-0.053,0.067-0.104,0.136-0.156,0.2c-0.058,0.076-0.116,0.146-0.176,0.219c-0.142,0.177-0.284,0.356-0.43,0.53l0.593,5.059v0.004
		l0.001,0.005L76.8,78.136h-0.005l-5.063-0.552c-0.175,0.146-0.354,0.288-0.529,0.434c-0.066,0.054-0.132,0.109-0.195,0.161
		c-0.076,0.059-0.148,0.112-0.222,0.172c-0.178,0.142-0.357,0.284-0.538,0.421l-0.552,5.063l-0.002,0.012l-0.012-0.004l-4.812-1.675
		c-0.201,0.105-0.408,0.206-0.612,0.308c-0.075,0.038-0.151,0.078-0.228,0.113c-0.085,0.04-0.168,0.078-0.252,0.119
		c-0.206,0.098-0.412,0.196-0.62,0.288l-1.674,4.82l-4.325-2.712c-0.219,0.059-0.443,0.111-0.666,0.165
		c-0.083,0.019-0.165,0.041-0.248,0.057c-0.09,0.023-0.181,0.04-0.273,0.06c-0.221,0.052-0.445,0.099-0.666,0.147l-2.709,4.32
		l-0.008,0.012c0.371-0.043,0.741-0.092,1.112-0.144l0.007-0.01l2.587-4.126l4.132,2.592c0.006-0.001,0.011-0.003,0.016-0.005
		c0.349-0.112,0.695-0.228,1.038-0.347l-0.001,0.003c0.085-0.029,0.169-0.063,0.254-0.093c0.172-0.063,0.344-0.126,0.513-0.189
		c0.095-0.035,0.191-0.068,0.284-0.105l0.003-0.007l1.601-4.603l4.602,1.597l0.008,0.003c0.071-0.043,0.144-0.088,0.214-0.131
		c0.061-0.036,0.12-0.072,0.18-0.108c0.186-0.112,0.372-0.224,0.556-0.338v0.004c0.313-0.2,0.627-0.405,0.937-0.615l0.001-0.008
		l0.53-4.843l4.823,0.529l0.028,0.002c0.234-0.227,0.47-0.456,0.701-0.688c0.03-0.03,0.063-0.059,0.093-0.09v0.001
		c0.264-0.266,0.521-0.534,0.777-0.809l-0.003-0.025l-0.564-4.818l4.831-0.569l0.015-0.002c0.205-0.307,0.406-0.62,0.602-0.935
		l0.002,0.004c0.196-0.315,0.39-0.637,0.576-0.962l-0.008-0.02l-1.631-4.575l4.59-1.636l0.006-0.001
		c0.023-0.06,0.043-0.12,0.065-0.181c0.027-0.074,0.054-0.149,0.081-0.224c0.078-0.215,0.159-0.429,0.233-0.643l0,0
		c0.001-0.003,0.002-0.007,0.003-0.009c0.001-0.001,0.001-0.001,0.001-0.001l0,0c0.12-0.348,0.235-0.701,0.344-1.055l-0.003-0.003
		l-2.62-4.112l4.093-2.609l0.02-0.013c0.052-0.373,0.096-0.743,0.136-1.116l-0.014,0.009L84.038,56.586z"/>
	<path fill="#92CFCD" d="M70.718,20.439l-0.285-2.282c-0.246,0.257-0.508,0.504-0.778,0.747l0.146,1.17
		c0.183,0.134,0.366,0.271,0.544,0.412c0.069,0.05,0.138,0.102,0.203,0.155c0.075,0.058,0.145,0.115,0.219,0.173
		c0.179,0.141,0.356,0.282,0.532,0.426l5.052-0.634l0.014-0.002l-0.001,0.014l-0.514,5.068c0.148,0.172,0.296,0.348,0.44,0.524
		c0.056,0.066,0.11,0.129,0.163,0.194c0.06,0.074,0.115,0.146,0.174,0.219c0.143,0.18,0.283,0.356,0.422,0.538l5.066,0.509
		l0.014,0.002l-0.005,0.013l-1.633,4.825c0.108,0.2,0.21,0.406,0.31,0.608c0.04,0.076,0.079,0.15,0.115,0.226
		c0.043,0.085,0.08,0.169,0.123,0.253c0.1,0.205,0.198,0.41,0.294,0.616l4.834,1.635l-2.676,4.351
		c0.031,0.117,0.058,0.237,0.088,0.354c0.001,0.009,0.003,0.018,0.006,0.026c0.021,0.094,0.048,0.187,0.069,0.283
		c0.022,0.08,0.046,0.161,0.063,0.244c0.022,0.093,0.04,0.182,0.061,0.273c0.053,0.223,0.104,0.445,0.149,0.666l4.33,2.667
		l0.025,0.015c-0.042-0.371-0.094-0.74-0.151-1.112l-0.015-0.008l-4.142-2.548l2.552-4.146l0.007-0.011
		c-0.115-0.35-0.234-0.703-0.358-1.052l0.002,0.001c-0.128-0.349-0.26-0.698-0.397-1.049l-0.016-0.006L81.16,33.24l1.561-4.62
		l0.001-0.003c-0.19-0.318-0.387-0.633-0.587-0.944l0.005,0c-0.2-0.314-0.408-0.625-0.62-0.933l-0.016-0.001l-4.841-0.49l0.49-4.833
		l0.002-0.023c-0.26-0.267-0.521-0.53-0.784-0.789l0.004,0c-0.268-0.259-0.54-0.516-0.814-0.771l-0.02,0.002L70.718,20.439z"/>
	<path fill="#92CFCD" d="M18.073,22.313l0.646,4.834l-4.838,0.646c-0.202,0.314-0.397,0.63-0.59,0.946l0-0.002
		c-0.189,0.319-0.377,0.646-0.563,0.97l1.715,4.57l-4.571,1.711c-0.125,0.349-0.246,0.702-0.361,1.051l-0.001-0.002
		c-0.115,0.354-0.225,0.712-0.33,1.074l2.69,4.069l-4.072,2.69c-0.045,0.373-0.084,0.743-0.12,1.116l4.258-2.811
		c0.112-0.634,0.24-1.262,0.383-1.885l-2.805-4.245l4.77-1.783c0.25-0.59,0.516-1.172,0.797-1.746l-1.787-4.769l5.046-0.673
		c0.377-0.519,0.769-1.027,1.171-1.525l-0.673-5.044l4.52,0.421c0.037-0.289,0.074-0.577,0.118-0.862l-3.859-0.357
		c-0.262,0.26-0.523,0.523-0.779,0.789v0l0-0.003c-0.045,0.047-0.088,0.096-0.133,0.143C18.491,21.859,18.278,22.084,18.073,22.313z
		"/>
	<path fill="#92CFCD" d="M41.236,85.616c-0.084-0.015-0.168-0.03-0.251-0.046c-0.092-0.018-0.181-0.037-0.273-0.056
		c-0.223-0.045-0.448-0.091-0.669-0.141l-4.235,2.847l-1.828-4.77c-0.209-0.089-0.421-0.179-0.628-0.271
		c-0.078-0.033-0.156-0.065-0.232-0.101c-0.088-0.036-0.169-0.078-0.255-0.115c-0.208-0.096-0.415-0.188-0.62-0.288l-4.767,1.829
		l-0.715-5.055c-0.185-0.136-0.371-0.271-0.552-0.407c-0.069-0.048-0.137-0.098-0.204-0.151c-0.076-0.056-0.146-0.111-0.221-0.169
		c-0.18-0.141-0.362-0.276-0.542-0.417l-5.054,0.712l0.435-5.087c-0.152-0.169-0.3-0.343-0.448-0.517
		c-0.033-0.038-0.066-0.076-0.098-0.114c-0.041-0.048-0.082-0.096-0.122-0.144c-0.041-0.05-0.082-0.1-0.125-0.149
		c-0.144-0.175-0.29-0.35-0.433-0.53l-5.083-0.43l1.559-4.854c-0.126-0.227-0.241-0.462-0.362-0.693
		c-0.026-0.048-0.051-0.096-0.076-0.145c-0.045-0.083-0.083-0.169-0.126-0.248c-0.101-0.204-0.206-0.408-0.305-0.614l-4.861-1.558
		l2.605-4.383c-0.066-0.234-0.121-0.474-0.182-0.71c-0.019-0.067-0.039-0.135-0.056-0.203c-0.024-0.093-0.043-0.181-0.067-0.271
		c-0.004-0.017-0.008-0.034-0.012-0.052c-0.05-0.209-0.112-0.412-0.159-0.622L7.891,55.09c0.049,0.372,0.108,0.739,0.168,1.108
		l4.197,2.491l-2.495,4.195c0.123,0.354,0.248,0.703,0.378,1.049l-0.002-0.001c0.135,0.348,0.271,0.697,0.414,1.039l4.646,1.491
		l-1.489,4.647c0.194,0.315,0.398,0.627,0.6,0.937h-0.003c0.209,0.31,0.418,0.619,0.636,0.923l4.86,0.413l-0.411,4.862
		c0.174,0.178,0.353,0.349,0.531,0.52c0.09,0.088,0.179,0.179,0.27,0.265l0,0c0.059,0.055,0.119,0.107,0.178,0.162
		c0.212,0.198,0.424,0.396,0.641,0.589l4.83-0.686l0.683,4.833c0.316,0.199,0.634,0.394,0.952,0.58l-0.002,0.001l-0.002,0.001
		c0.08,0.047,0.164,0.092,0.245,0.139c0.243,0.141,0.485,0.279,0.73,0.415L33,83.315l1.746,4.555
		c0.353,0.125,0.705,0.241,1.057,0.354l-0.003,0.003c0.314,0.099,0.632,0.193,0.952,0.285c0.042,0.012,0.082,0.025,0.123,0.037
		l0.002-0.001l4.045-2.723l2.722,4.049l0.001,0.002c0.016,0.002,0.031,0.003,0.046,0.005c0.155,0.017,0.31,0.03,0.465,0.045
		c0.202,0.021,0.405,0.043,0.605,0.06l-0.009-0.014l-2.842-4.23C41.685,85.701,41.458,85.658,41.236,85.616z"/>
	<path fill="#FFFFFF" d="M12.435,58.317c0.043,0.176,0.089,0.351,0.135,0.525c0.062,0.236,0.116,0.476,0.182,0.71
		c0.686,2.429,1.617,4.752,2.762,6.947c0.121,0.231,0.236,0.467,0.362,0.693c1.167,2.125,2.533,4.122,4.082,5.964
		c0.041,0.048,0.081,0.096,0.122,0.144c3.224,3.792,7.204,6.924,11.71,9.155c-0.129-1.752-0.277-3.736-0.429-5.771
		c-0.497-6.577-1.009-13.363-1.003-15.701c-1.159-0.301-2.241-0.852-2.799-1.273c-2.861-2.175-3.921-4.841-3.33-8.389
		c0.194-1.166,0.539-2.122,1.033-2.869c-1.042-4.02-3.132-16.023-1.988-25.909c-1.351,1.238-2.608,2.578-3.762,4.004
		c-0.403,0.499-0.794,1.006-1.171,1.525c-1.239,1.708-2.325,3.531-3.259,5.442c-0.281,0.574-0.546,1.156-0.797,1.746
		c-0.821,1.931-1.482,3.944-1.965,6.028c-0.143,0.623-0.271,1.25-0.383,1.885c-0.319,1.806-0.502,3.658-0.546,5.544h0.281
		c0.91,0,1.648,0.737,1.648,1.648c0,0.909-0.738,1.646-1.648,1.646h-0.216c0.126,1.94,0.404,3.836,0.821,5.682
		C12.323,57.905,12.384,58.108,12.435,58.317z"/>
	<path fill="#FFFFFF" d="M83.579,40.554c-2.195-8.65-7.465-16.073-14.578-21.041c-0.106,0.4-0.143,0.831-0.125,1.285
		c0.021,0.61,0.12,1.251,0.22,1.881c0.098,0.604,0.193,1.229,0.222,1.821c0.072,1.49,0.253,3.003,0.427,4.464
		c0.126,1.029,0.252,2.091,0.339,3.147c0.074,0.856,0.097,1.723,0.119,2.564c0.055,2.148,0.108,4.178,0.919,6.043
		c0.603,1.394,0.982,1.527,2.393,2.03c0.186,0.067,0.385,0.137,0.602,0.219c0.348,0.129,0.747,0.25,1.16,0.382
		c1.399,0.439,2.984,0.934,3.879,1.932c1.084,1.208,1.645,3.979,0.717,5.607c-0.988,1.733-3.837,2.477-5.365,2.642
		c-0.372,0.04-0.737,0.06-1.09,0.06c-0.192,0-0.373-0.02-0.561-0.03c-0.47,2.365,0.04,5.148,0.589,8.096
		c0.776,4.163,1.577,8.47-0.52,11.852c-2.096,3.383-6.192,4.452-10.698,4.452c-3.668,0-7.609-0.708-10.974-1.459
		c0.606,2.708,0.517,5.663,0.42,8.529c-0.01,0.28-0.016,0.544-0.025,0.814c-0.004,0.075-0.004,0.151-0.006,0.229
		c17.757-1.733,31.796-16.14,32.969-34.059h-0.412c-0.91,0-1.648-0.737-1.648-1.646c0-0.911,0.738-1.648,1.648-1.648h0.475
		c-0.065-2.801-0.428-5.527-1.088-8.139C83.582,40.572,83.58,40.563,83.579,40.554z"/>
	<path fill="#F4D5BE" d="M49.959,76.204c-0.836-0.194-1.625-0.386-2.351-0.563c-1.098-0.27-2.051-0.501-2.743-0.636
		c-0.322-0.063-0.53-0.375-0.467-0.697c0.063-0.321,0.371-0.534,0.695-0.466c0.72,0.141,1.681,0.375,2.795,0.645
		c6.495,1.585,20.008,4.878,24.028-1.606c1.855-2.992,1.093-7.067,0.359-11.01c-0.538-2.886-1.081-5.863-0.604-8.434
		c-0.862-0.131-1.686-0.331-2.486-0.54c-1.004-0.256-1.946-0.501-2.979-0.605c-0.325-0.032-0.562-0.326-0.53-0.653
		c0.034-0.324,0.33-0.564,0.652-0.528c1.119,0.114,2.15,0.383,3.152,0.639c1.594,0.412,3.098,0.797,4.896,0.603
		c1.702-0.185,3.844-0.968,4.462-2.05c0.644-1.137,0.228-3.342-0.567-4.228c-0.678-0.758-2.098-1.2-3.351-1.592
		c-0.436-0.136-0.853-0.267-1.219-0.404c-0.211-0.078-0.407-0.146-0.587-0.213c-1.515-0.539-2.272-0.806-3.083-2.673
		c-0.905-2.076-0.963-4.317-1.021-6.486c-0.018-0.821-0.04-1.672-0.11-2.494c-0.086-1.036-0.212-2.089-0.335-3.105
		c-0.177-1.483-0.362-3.017-0.435-4.551c-0.023-0.526-0.114-1.092-0.209-1.689c-0.127-0.795-0.252-1.607-0.238-2.396
		c-5.99,4.077-15.334,6.03-22.162,7.458c-1.939,0.406-3.617,0.756-4.874,1.09c-3.438,0.916-1.504,9.195-0.681,12.729
		c0.192,0.816,0.341,1.458,0.404,1.871c0.627,4.115-1.917,7.999-4.526,8.59c-0.189,0.045-0.434,0.08-0.712,0.08
		c-1.151,0-2.899-0.623-3.924-3.997c-0.008-0.017-0.01-0.035-0.015-0.052c0,0,0-0.002-0.003-0.009
		c-0.002-0.004-0.005-0.009-0.006-0.014c-0.07-0.079-0.513-0.465-2.292-0.526c-0.457,0.026-0.866,0.113-1.231,0.26
		c-0.055,0.022-0.106,0.046-0.157,0.07c-1.119,0.52-1.803,1.657-2.107,3.496c-0.519,3.109,0.371,5.343,2.878,7.251
		c1.12,0.851,4.001,1.809,4.842,0.837c0.213-0.25,0.588-0.274,0.835-0.063c0.247,0.217,0.274,0.591,0.061,0.838
		c-0.521,0.604-1.282,0.829-2.112,0.829c-0.119,0-0.236-0.016-0.359-0.022c0.026,2.457,0.542,9.306,0.998,15.41
		c0.175,2.293,0.34,4.525,0.477,6.438c4.219,1.897,8.868,3.007,13.756,3.174v-0.063c0-0.912,0.737-1.65,1.646-1.65
		c0.911,0,1.65,0.738,1.65,1.65v0.008c0.127-0.011,0.255-0.018,0.383-0.032c0,0,0-0.005,0-0.007
		c0.007-0.209,0.013-0.456,0.021-0.701c0.005-0.149,0.01-0.297,0.015-0.421C50.586,81.995,50.681,78.905,49.959,76.204z
		 M64.394,38.268c0.655,0,1.186,0.53,1.186,1.184c0,0.652-0.53,1.183-1.186,1.183c-0.652,0-1.183-0.53-1.183-1.183
		C63.211,38.797,63.741,38.268,64.394,38.268z M60.633,39.226c0.513,0,0.928,0.419,0.928,0.928c0,0.514-0.415,0.929-0.928,0.929
		s-0.927-0.415-0.927-0.929C59.706,39.645,60.12,39.226,60.633,39.226z M70.261,60.912c-1.79,5.064-6.73,5.749-9.151,5.875
		c-6.659,0.344-6.659-5.185-6.659-5.185C62.738,62.525,70.261,60.912,70.261,60.912z M29.548,56.037
		c-0.073,0.161-0.23,0.259-0.4,0.259c-0.059,0-0.118-0.012-0.176-0.038c-1.852-0.823-2.597-2.749-1.855-4.802
		c0.296-0.812,1.057-1.486,1.895-1.679c0.692-0.154,1.348,0.027,1.852,0.517c0.17,0.169,0.172,0.445,0.005,0.617
		c-0.17,0.171-0.447,0.175-0.617,0.008c-0.361-0.353-0.768-0.353-1.044-0.289c-0.554,0.126-1.073,0.589-1.267,1.125
		c-0.588,1.617-0.042,3.071,1.388,3.707C29.546,55.559,29.646,55.816,29.548,56.037z M31.272,56.771
		c-0.219,0.332-0.546,0.515-0.914,0.515c-0.043,0-0.087-0.006-0.132-0.01c-0.239-0.03-0.41-0.244-0.383-0.483
		c0.031-0.241,0.246-0.412,0.485-0.383c0.046,0.006,0.128,0.014,0.219-0.123c0.154-0.229,0.182-0.657,0.056-0.882
		c-0.055-0.1-0.105-0.098-0.145-0.096c-0.239,0.017-0.441-0.182-0.449-0.423c-0.007-0.242,0.18-0.441,0.421-0.45
		c0.396-0.015,0.738,0.188,0.938,0.545C31.653,55.498,31.613,56.267,31.272,56.771z"/>
	<path fill="#E1960E" d="M24.626,21.362c-1.329,8.837,0.218,20.244,1.585,25.992c0.666-0.399,1.694-0.894,2.692-0.855
		c2.936,0.097,3.403,1.061,3.461,1.508c0.704,2.274,1.852,3.357,3.22,3.043c2.069-0.469,4.144-3.81,3.617-7.255
		c-0.055-0.365-0.201-0.99-0.387-1.78c-1.053-4.521-3.018-12.936,1.532-14.145c1.289-0.343,2.979-0.695,4.936-1.104
		c6.694-1.4,16.869-3.528,22.649-7.974c1.696-1.305,3.022-2.81,3.758-4.552c1.24-2.931,0.745-6.389-1.463-10.292
		c-0.478,1.362-1.106,2.781-1.993,4.039c-0.007,0.014-0.014,0.021-0.021,0.03c-1.704,2.401-4.338,4.203-8.642,3.845
		c-0.325-0.026-0.57-0.314-0.544-0.64c0.028-0.325,0.311-0.567,0.64-0.542c0.418,0.033,0.818,0.041,1.208,0.033
		c0.241-0.005,0.475-0.023,0.707-0.045c0.118-0.013,0.244-0.028,0.384-0.048c0.112-0.015,0.223-0.032,0.333-0.052
		c0.129-0.023,0.262-0.05,0.399-0.081c0.128-0.029,0.254-0.063,0.379-0.098c0.105-0.029,0.21-0.061,0.316-0.095
		c0.176-0.059,0.351-0.124,0.521-0.195c0.076-0.032,0.144-0.064,0.216-0.097c0.787-0.363,1.497-0.873,2.142-1.529
		c0.113-0.144,0.168-0.236,0.168-0.236c-3.406-0.07-6.776-0.412-10.045-0.741c-8.937-0.907-17.377-1.762-25.845,2.64
		C27.172,11.892,25.409,16.187,24.626,21.362z"/>
	<path d="M60.633,41.083c0.513,0,0.928-0.415,0.928-0.929c0-0.509-0.415-0.928-0.928-0.928s-0.927,0.419-0.927,0.928
		C59.706,40.668,60.12,41.083,60.633,41.083z"/>
	<circle cx="64.394" cy="39.451" r="1.183"/>
	<path d="M61.109,66.787c2.421-0.126,7.361-0.811,9.151-5.875c0,0-7.522,1.613-15.811,0.69C54.45,61.603,54.45,67.131,61.109,66.787
		z M65.729,65.024c0,0-6.651,2.559-9.777-0.984C55.951,64.04,62.288,62.644,65.729,65.024z"/>
	<path fill="#EA4C69" d="M65.729,65.024c-3.44-2.381-9.777-0.984-9.777-0.984C59.077,67.583,65.729,65.024,65.729,65.024z"/>
	<path d="M23.516,20.777c-0.016,0.095-0.024,0.192-0.04,0.287c-0.044,0.285-0.081,0.573-0.118,0.862
		c-0.027,0.207-0.061,0.41-0.085,0.618c-1.144,9.886,0.946,21.889,1.988,25.909c-0.494,0.747-0.839,1.703-1.033,2.869
		c-0.591,3.548,0.469,6.214,3.33,8.389c0.558,0.422,1.641,0.973,2.799,1.273c-0.006,2.338,0.506,9.124,1.003,15.701
		c0.152,2.035,0.3,4.02,0.429,5.771c0.404,0.199,0.813,0.391,1.229,0.578c-0.137-1.913-0.301-4.146-0.477-6.438
		c-0.457-6.104-0.972-12.953-0.998-15.41c0.123,0.007,0.241,0.022,0.359,0.022c0.83,0,1.59-0.225,2.112-0.829
		c0.213-0.247,0.186-0.621-0.061-0.838c-0.248-0.212-0.622-0.188-0.835,0.063c-0.841,0.972-3.722,0.014-4.842-0.837
		c-2.508-1.908-3.397-4.142-2.878-7.251c0.304-1.839,0.988-2.976,2.107-3.496c0.051-0.024,0.102-0.048,0.157-0.07
		c0.365-0.146,0.775-0.233,1.231-0.26c1.78,0.062,2.223,0.447,2.292,0.526c0.001,0.005,0.004,0.01,0.006,0.014
		c0.003,0.007,0.003,0.009,0.003,0.009c0.005,0.017,0.007,0.035,0.015,0.052c1.025,3.374,2.773,3.997,3.924,3.997
		c0.278,0,0.523-0.035,0.712-0.08c2.609-0.591,5.153-4.475,4.526-8.59c-0.063-0.413-0.212-1.055-0.404-1.871
		c-0.824-3.535-2.757-11.814,0.681-12.729c1.257-0.334,2.935-0.684,4.874-1.09c6.828-1.427,16.171-3.381,22.162-7.458
		c-0.014,0.79,0.111,1.602,0.238,2.396c0.095,0.597,0.186,1.163,0.209,1.689c0.072,1.535,0.258,3.068,0.435,4.551
		c0.123,1.016,0.249,2.069,0.335,3.105c0.07,0.821,0.093,1.672,0.11,2.494c0.058,2.169,0.115,4.41,1.021,6.486
		c0.811,1.867,1.568,2.134,3.083,2.673c0.18,0.067,0.376,0.135,0.587,0.213c0.366,0.137,0.783,0.269,1.219,0.404
		c1.253,0.393,2.673,0.834,3.351,1.592c0.795,0.886,1.211,3.091,0.567,4.228c-0.618,1.082-2.76,1.865-4.462,2.05
		c-1.798,0.194-3.302-0.19-4.896-0.603c-1.002-0.256-2.033-0.524-3.152-0.639c-0.322-0.036-0.618,0.204-0.652,0.528
		c-0.031,0.327,0.205,0.621,0.53,0.653c1.033,0.104,1.976,0.35,2.979,0.605c0.801,0.209,1.624,0.409,2.486,0.54
		c-0.478,2.57,0.065,5.548,0.604,8.434c0.733,3.942,1.496,8.018-0.359,11.01c-4.021,6.484-17.533,3.191-24.028,1.606
		c-1.114-0.27-2.076-0.504-2.795-0.645c-0.325-0.068-0.632,0.145-0.695,0.466c-0.063,0.322,0.145,0.634,0.467,0.697
		c0.692,0.135,1.645,0.366,2.743,0.636c0.726,0.177,1.515,0.368,2.351,0.563c0.722,2.701,0.627,5.791,0.53,8.787
		c-0.005,0.124-0.01,0.271-0.015,0.421c-0.008,0.263-0.014,0.539-0.021,0.749c0.397-0.026,0.795-0.052,1.188-0.089
		c0.002-0.078,0.002-0.154,0.006-0.229c0.01-0.271,0.016-0.534,0.025-0.814c0.097-2.866,0.187-5.821-0.42-8.529
		c3.364,0.751,7.306,1.459,10.974,1.459c4.506,0,8.603-1.069,10.698-4.452c2.097-3.382,1.296-7.688,0.52-11.852
		c-0.549-2.947-1.059-5.73-0.589-8.096c0.188,0.011,0.368,0.03,0.561,0.03c0.353,0,0.718-0.02,1.09-0.06
		c1.528-0.165,4.377-0.908,5.365-2.642c0.928-1.629,0.367-4.399-0.717-5.607c-0.895-0.998-2.479-1.492-3.879-1.932
		c-0.413-0.131-0.813-0.252-1.16-0.382c-0.217-0.082-0.416-0.152-0.602-0.219c-1.41-0.502-1.79-0.636-2.393-2.03
		c-0.811-1.865-0.864-3.895-0.919-6.043c-0.022-0.841-0.045-1.708-0.119-2.564c-0.087-1.057-0.213-2.119-0.339-3.147
		c-0.174-1.461-0.354-2.974-0.427-4.464c-0.028-0.592-0.124-1.216-0.222-1.821c-0.1-0.63-0.199-1.271-0.22-1.881
		c-0.018-0.454,0.019-0.884,0.125-1.285c0.002-0.008,0.002-0.021,0.006-0.028c0.228-0.186,0.433-0.386,0.647-0.581
		c0.271-0.243,0.532-0.49,0.778-0.747c0.454-0.472,0.857-0.971,1.223-1.49c0.439-0.624,0.833-1.271,1.127-1.969
		c1.511-3.58,0.766-7.782-2.219-12.489c-0.125-0.199-0.353-0.304-0.58-0.272c-0.232,0.031-0.421,0.197-0.488,0.417
		c-0.574,1.911-1.261,3.474-2.084,4.712c-3.68-0.021-7.346-0.391-10.897-0.753c-9.119-0.919-17.732-1.792-26.511,2.772
		c-2.686,1.396-4.428,4.121-5.513,7.525C24.075,17.913,23.753,19.311,23.516,20.777z M30.547,10.136
		c8.468-4.401,16.908-3.546,25.845-2.64c3.269,0.33,6.639,0.671,10.045,0.741c0.021,0.002,0.043,0.002,0.064,0.003
		c-0.076,0.083-0.155,0.154-0.232,0.233c-0.645,0.656-1.354,1.167-2.142,1.529c-0.071,0.033-0.144,0.067-0.216,0.097
		c-0.17,0.071-0.345,0.136-0.521,0.195c-0.104,0.035-0.21,0.065-0.316,0.095c-0.125,0.036-0.251,0.069-0.379,0.098
		c-0.132,0.03-0.265,0.057-0.399,0.081c-0.11,0.02-0.221,0.037-0.333,0.052c-0.128,0.018-0.254,0.036-0.384,0.048
		c-0.232,0.021-0.466,0.04-0.707,0.045c-0.39,0.008-0.79,0-1.208-0.033c-0.329-0.026-0.611,0.217-0.64,0.542
		c-0.026,0.326,0.219,0.614,0.544,0.64c4.304,0.357,6.938-1.444,8.642-3.845c0.008-0.009,0.015-0.016,0.021-0.03
		c0.887-1.258,1.516-2.677,1.993-4.039c2.208,3.904,2.703,7.361,1.463,10.292c-0.735,1.742-2.062,3.248-3.758,4.552
		c-5.78,4.446-15.955,6.574-22.649,7.974c-1.957,0.409-3.646,0.762-4.936,1.104c-4.55,1.208-2.585,9.623-1.532,14.145
		c0.186,0.79,0.332,1.415,0.387,1.78c0.527,3.446-1.548,6.787-3.617,7.255c-1.368,0.313-2.516-0.77-3.22-3.043
		c-0.058-0.447-0.525-1.411-3.461-1.508c-0.998-0.039-2.026,0.456-2.692,0.855c-1.367-5.749-2.914-17.155-1.585-25.992
		C25.409,16.187,27.172,11.892,30.547,10.136z"/>
	<path d="M29.328,55.462c-1.429-0.636-1.976-2.09-1.388-3.707c0.194-0.536,0.713-0.999,1.267-1.125
		c0.276-0.063,0.683-0.063,1.044,0.289c0.17,0.167,0.447,0.163,0.617-0.008c0.167-0.172,0.165-0.448-0.005-0.617
		c-0.504-0.489-1.16-0.671-1.852-0.517c-0.838,0.192-1.598,0.867-1.895,1.679c-0.742,2.053,0.003,3.979,1.855,4.802
		c0.058,0.026,0.118,0.038,0.176,0.038c0.17,0,0.328-0.098,0.4-0.259C29.646,55.816,29.546,55.559,29.328,55.462z"/>
	<path d="M30.431,54.436c-0.241,0.009-0.428,0.208-0.421,0.45c0.007,0.241,0.209,0.439,0.449,0.423
		c0.039-0.002,0.09-0.004,0.145,0.096c0.126,0.225,0.098,0.653-0.056,0.882c-0.091,0.137-0.172,0.129-0.219,0.123
		c-0.239-0.029-0.454,0.142-0.485,0.383c-0.027,0.239,0.144,0.453,0.383,0.483c0.044,0.004,0.088,0.01,0.132,0.01
		c0.367,0,0.694-0.183,0.914-0.515c0.341-0.504,0.381-1.272,0.097-1.79C31.168,54.623,30.827,54.421,30.431,54.436z"/>
	<path fill="#92CFCD" d="M7.307,52.014h0.277h3.871h0.216c0.91,0,1.648-0.737,1.648-1.646c0-0.911-0.738-1.648-1.648-1.648h-0.281
		H7.526h-0.22c-0.221,0-0.431,0.045-0.623,0.123c-0.417,0.171-0.746,0.508-0.91,0.929c-0.073,0.185-0.116,0.386-0.116,0.597
		C5.658,51.276,6.396,52.014,7.307,52.014z"/>
	<path fill="#92CFCD" d="M90.211,50.367c0-0.911-0.737-1.648-1.648-1.648h-0.024h-3.865h-0.475c-0.91,0-1.648,0.737-1.648,1.648
		c0,0.909,0.738,1.646,1.648,1.646h0.412h3.871h0.081c0.237,0,0.461-0.052,0.664-0.141C89.807,51.617,90.211,51.04,90.211,50.367z"
		/>
	<path fill="#92CFCD" d="M50.071,90.063v-3.911v-0.008c0-0.912-0.739-1.65-1.65-1.65c-0.909,0-1.646,0.738-1.646,1.65v0.063v3.875
		v0.423c0,0.91,0.737,1.65,1.646,1.65c0.237,0,0.462-0.053,0.667-0.144c0.457-0.203,0.801-0.608,0.928-1.101
		c0.031-0.132,0.056-0.266,0.056-0.406V90.063z"/>
</g>
</svg>
